<?xml version="1.0" encoding="UTF-8" standalone="no"?><!-- Generator: Gravit.io --><svg xmlns="http://www.w3.org/2000/svg" xmlns:xlink="http://www.w3.org/1999/xlink" style="isolation:isolate" viewBox="0 0 500 500" width="500pt" height="500pt"><defs><clipPath id="_clipPath_uwT05DX690MlDhJZBKkfHBQPodyuGk84"><rect width="500" height="500"/></clipPath></defs><g clip-path="url(#_clipPath_uwT05DX690MlDhJZBKkfHBQPodyuGk84)"><path d=" M 123.464 332.436 C 128.216 339.748 133.602 346.637 139.56 353.02 C 148.57 362.66 158.79 371.07 169.98 378.06 C 182.1 385.64 195.22 391.46 208.97 395.35 C 222.26 399.1 236.01 401 249.82 401 C 269.96 400.99 289.9 396.98 308.48 389.2 L 309.4 388.81 L 308.63 386.97 L 307.71 387.36 L 307.71 387.36 C 289.37 395.04 269.69 398.99 249.82 399 C 236.19 399 222.63 397.12 209.52 393.43 C 195.95 389.59 183 383.84 171.04 376.36 C 160 369.47 149.91 361.16 141.02 351.66 C 135.171 345.388 129.88 338.624 125.206 331.447 L 131.93 327.63 L 127.48 319.81 C 115.37 298.47 109 274.35 109 249.82 C 109 236.93 110.77 224.1 114.27 211.69 C 117.91 198.85 123.35 186.59 130.43 175.28 C 136.95 164.83 144.8 155.28 153.8 146.87 C 162.51 138.75 172.21 131.77 182.68 126.11 C 203.41 114.88 226.61 109 250.19 109 C 263.07 109 275.9 110.77 288.31 114.27 C 301.15 117.91 313.41 123.35 324.72 130.43 C 335.17 136.95 344.72 144.8 353.13 153.8 C 361.25 162.51 368.23 172.21 373.89 182.68 C 385.12 203.41 391 226.61 390.99 250.18 C 391 263.07 389.23 275.9 385.73 288.31 C 382.09 301.15 376.66 313.4 369.58 324.71 L 364.8 332.34 L 380.06 341.89 L 384.84 334.26 C 392.82 321.51 398.95 307.68 403.05 293.2 C 407 279.2 409 264.73 408.99 250.18 C 409 223.62 402.37 197.47 389.72 174.11 C 383.33 162.29 375.45 151.34 366.28 141.52 C 356.8 131.37 346.04 122.51 334.26 115.16 C 321.5 107.18 307.68 101.05 293.2 96.95 C 279.2 93 264.73 91 250.18 91 C 223.62 91 197.47 97.63 174.11 110.28 C 162.29 116.67 151.34 124.55 141.52 133.72 C 131.37 143.2 122.51 153.96 115.16 165.74 C 107.18 178.5 101.05 192.32 96.95 206.8 C 93 220.8 91 235.27 91 249.82 C 91 277.47 98.18 304.65 111.83 328.69 L 116.27 336.52 L 123.464 332.436 L 123.464 332.436 L 123.464 332.436 L 123.464 332.436 L 123.464 332.436 Z  M 186.316 354.935 C 190.37 357.329 194.564 359.498 198.88 361.43 C 214.38 368.34 231.11 372.05 248.07 372.36 L 249.07 372.38 L 249.11 370.38 L 248.11 370.36 L 248.11 370.36 C 231.41 370.06 214.95 366.4 199.7 359.6 C 195.474 357.71 191.366 355.589 187.395 353.248 L 189.23 350.38 L 185.44 347.95 C 176.33 342.11 168.05 335.08 160.82 327.04 C 150.76 315.88 142.88 302.95 137.58 288.89 C 132.49 275.33 129.88 260.95 129.89 246.45 C 129.88 229.85 133.29 213.43 139.91 198.2 C 146.78 182.45 156.95 168.35 169.73 156.86 C 180.89 146.8 193.82 138.92 207.88 133.62 C 221.44 128.53 235.82 125.92 250.31 125.93 C 266.91 125.92 283.34 129.33 298.57 135.95 C 314.32 142.82 328.42 152.99 339.91 165.78 C 348.58 175.38 355.64 186.33 360.82 198.18 L 362.62 202.31 L 365.746 200.942 C 365.975 201.523 366.2 202.105 366.42 202.69 C 371.67 216.65 374.35 231.44 374.34 246.36 C 374.34 260.59 371.91 274.73 367.14 288.14 L 366.8 289.09 L 368.68 289.76 L 369.02 288.81 C 373.87 275.18 376.34 260.82 376.34 246.36 C 376.35 231.2 373.62 216.17 368.3 201.98 C 368.067 201.363 367.83 200.749 367.588 200.136 L 370.87 198.7 L 369.07 194.58 C 363.5 181.84 355.91 170.08 346.6 159.75 C 334.25 146.01 319.09 135.08 302.16 127.7 C 285.8 120.59 268.15 116.92 250.31 116.93 C 234.74 116.92 219.29 119.73 204.71 125.2 C 189.6 130.89 175.7 139.36 163.71 150.17 C 149.97 162.52 139.04 177.68 131.66 194.61 C 124.55 210.97 120.88 228.62 120.89 246.45 C 120.88 262.03 123.68 277.48 129.16 292.06 C 134.85 307.17 143.32 321.07 154.13 333.06 C 161.9 341.7 170.8 349.26 180.59 355.53 L 184.38 357.96 L 186.316 354.935 L 186.316 354.935 L 186.316 354.935 L 186.316 354.935 L 186.316 354.935 L 186.316 354.935 L 186.316 354.935 Z  M 245 151.121 L 245 155 L 250 155 C 262.7 154.99 275.27 157.53 286.96 162.47 C 298.24 167.25 308.5 174.17 317.16 182.84 C 325.83 191.5 332.75 201.76 337.53 213.04 C 342.47 224.73 345.01 237.3 345 250 C 345.01 262.7 342.47 275.27 337.53 286.96 C 332.75 298.24 325.83 308.5 317.16 317.16 C 308.5 325.83 298.24 332.75 286.96 337.53 C 275.27 342.47 262.7 345.01 250 345 C 237.3 345.01 224.73 342.47 213.04 337.53 C 201.76 332.75 191.5 325.83 182.84 317.16 C 174.17 308.5 167.25 298.24 162.47 286.96 C 157.53 275.27 154.99 262.7 155 250 L 155 245 L 145 245 L 145 250 C 144.99 264.03 147.8 277.93 153.26 290.86 C 158.54 303.33 166.19 314.66 175.77 324.23 C 185.34 333.81 196.67 341.46 209.14 346.74 C 222.07 352.2 235.97 355.01 250 355 C 264.03 355.01 277.93 352.2 290.86 346.74 C 303.33 341.46 314.66 333.81 324.23 324.23 C 333.81 314.66 341.46 303.33 346.74 290.86 C 352.2 277.93 355.01 264.03 355 250 C 355.01 235.97 352.2 222.07 346.74 209.14 C 341.46 196.67 333.81 185.34 324.23 175.77 C 314.66 166.19 303.33 158.54 290.86 153.26 C 277.93 147.8 264.03 144.99 250 145 L 245 145 L 245 149.119 C 237.62 149.479 230.3 150.652 223.16 152.61 C 214.71 154.94 206.6 158.36 199.04 162.8 C 184.06 171.58 171.58 184.06 162.8 199.04 L 162.29 199.9 L 164.02 200.91 L 164.52 200.05 C 173.13 185.36 185.36 173.13 200.05 164.52 C 207.46 160.18 215.41 156.82 223.69 154.54 C 230.651 152.623 237.798 151.478 245 151.121 L 245 151.121 L 245 151.121 L 245 151.121 L 245 151.121 L 245 151.121 L 245 151.121 L 245 151.121 Z  M 277.23 231.72 L 274.42 227.59 L 282.68 221.96 L 285.5 226.09 C 290.3 233.14 292.87 241.47 292.86 250 C 292.86 261.27 288.38 272.08 280.42 280.05 C 272.45 288.02 261.63 292.5 250.37 292.5 C 245.8 292.5 241.27 291.77 236.94 290.33 L 232.19 288.75 L 235.35 279.27 L 240.09 280.84 C 243.4 281.94 246.87 282.5 250.36 282.5 C 258.98 282.5 267.25 279.07 273.34 272.98 C 279.44 266.89 282.86 258.62 282.86 250 C 282.87 243.48 280.9 237.11 277.23 231.72 L 277.23 231.72 L 277.23 231.72 Z  M 240.364 246.395 C 240.364 240.876 244.845 236.395 250.364 236.395 C 255.883 236.395 260.364 240.876 260.364 246.395 C 260.364 251.914 255.883 256.395 250.364 256.395 C 244.845 256.395 240.364 251.914 240.364 246.395 L 240.364 246.395 Z  M 176.86 246.39 C 176.86 236.57 178.82 226.85 182.64 217.8 C 186.34 209.07 191.69 201.13 198.4 194.43 C 205.1 187.73 213.04 182.37 221.77 178.67 C 230.82 174.85 240.54 172.89 250.36 172.89 C 260.19 172.89 269.91 174.85 278.96 178.67 C 287.69 182.37 295.62 187.73 302.33 194.43 C 309.03 201.13 314.38 209.07 318.08 217.8 C 321.91 226.85 323.87 236.57 323.86 246.39 C 323.87 256.22 321.91 265.94 318.08 274.99 C 314.38 283.72 309.03 291.66 302.33 298.36 C 295.62 305.06 287.69 310.42 278.96 314.12 C 269.91 317.94 260.19 319.9 250.36 319.89 C 240.54 319.9 230.82 317.94 221.77 314.12 C 213.04 310.42 205.1 305.06 198.4 298.36 C 191.69 291.66 186.34 283.72 182.64 274.99 C 178.82 265.94 176.86 256.22 176.86 246.39 L 176.86 246.39 L 176.86 246.39 L 176.86 246.39 L 176.86 246.39 Z  M 173.86 246.39 C 173.86 236.17 175.9 226.05 179.88 216.63 C 183.73 207.54 189.3 199.29 196.28 192.31 C 203.25 185.33 211.51 179.76 220.6 175.91 C 230.02 171.93 240.14 169.89 250.36 169.89 C 260.59 169.89 270.71 171.93 280.13 175.91 C 289.22 179.76 297.47 185.33 304.45 192.31 C 311.43 199.29 317 207.54 320.85 216.63 C 324.83 226.05 326.87 236.17 326.86 246.39 C 326.87 256.62 324.83 266.74 320.85 276.16 C 317 285.25 311.43 293.5 304.45 300.48 C 297.47 307.46 289.22 313.03 280.13 316.88 C 270.71 320.86 260.59 322.9 250.36 322.89 C 240.14 322.9 230.02 320.86 220.6 316.88 C 211.51 313.03 203.25 307.46 196.28 300.48 C 189.3 293.5 183.73 285.25 179.88 276.16 C 175.9 266.74 173.86 256.62 173.86 246.39 L 173.86 246.39 L 173.86 246.39 L 173.86 246.39 L 173.86 246.39 Z  M 265 378.06 Q 339.107 305.099 376.36 361.43 Q 406.034 406.301 442 372.38 Q 384.927 434.067 346.74 393.43 C 298.978 342.604 270.402 374.797 265 378.06 Z " fill-rule="evenodd" fill="rgb(0,0,0)"/></g></svg>